Coordinates
version=1
nRows=17
nColumns=40
inDegrees=yes

Units are S.I. units (second, meters, Newtons, ...)
Angles are in degrees.

endheader
time	pelvis_tilt	pelvis_list	pelvis_rotation	pelvis_tx	pelvis_ty	pelvis_tz	hip_flexion_r	hip_adduction_r	hip_rotation_r	knee_angle_r	knee_angle_r_beta	ankle_angle_r	subtalar_angle_r	mtp_angle_r	hip_flexion_l	hip_adduction_l	hip_rotation_l	knee_angle_l	knee_angle_l_beta	ankle_angle_l	subtalar_angle_l	mtp_angle_l	lumbar_extension	lumbar_bending	lumbar_rotation	arm_flex_r	arm_add_r	arm_rot_r	elbow_flex_r	pro_sup_r	wrist_flex_r	wrist_dev_r	arm_flex_l	arm_add_l	arm_rot_l	elbow_flex_l	pro_sup_l	wrist_flex_l	wrist_dev_l
     46.97442857	     -2.18832007	     -1.95210547	      1.47984691	      0.95645822	      0.93743701	      0.40909999	     34.79264491	     -5.67316280	     -3.92257885	     65.54535382	     65.54535382	     -1.45429458	    -18.12123659	      3.04578168	      6.98734903	     -0.11425861	     -7.91177611	     15.35730007	     15.35730007	     12.89953806	    -11.06373247	      0.55877854	     -8.62806608	      5.61312586	      2.18458446	     -7.84313637	    -11.59247075	    -13.33030902	     16.49659828	     47.26284691	      0.00000000	      0.00000000	     23.85953454	    -12.96660519	     -5.69131171	     53.92940954	     46.99556975	      0.00000000	      0.00000000
     46.98635714	     -2.04615599	     -2.11961841	      1.40262420	      0.95589046	      0.93782085	      0.40927768	     35.03325373	     -5.35815609	     -4.34092537	     62.95283520	     62.95283520	     -0.76744592	    -18.16029041	      3.81576144	      5.94233732	     -0.28854090	     -8.04647423	     14.57104332	     14.57104332	     13.14740935	    -10.40193514	      0.49845444	     -9.14504270	      5.84388646	      2.70736888	     -9.70704605	    -11.46488687	    -13.47972263	     16.76169547	     47.25507309	      0.00000000	      0.00000000	     24.50555557	    -12.91265728	     -5.99636480	     57.06973423	     47.06394884	      0.00000000	      0.00000000
     46.99828571	     -2.13307613	     -2.21746716	      1.31741736	      0.95519018	      0.93757703	      0.40953253	     35.42390650	     -5.17416352	     -4.80700275	     60.11095513	     60.11095513	     -0.17890426	    -17.96717813	      4.36316466	      5.34717484	     -0.43183706	     -8.40816715	     14.14452770	     14.14452770	     13.42091041	     -9.84320336	      0.16370756	     -9.34113469	      5.94256278	      2.36064135	    -11.40449394	    -11.37158111	    -13.76358460	     18.36607581	     47.20555023	      0.00000000	      0.00000000	     24.23954215	    -13.47198784	     -6.44418794	     61.20955276	     47.15454255	      0.00000000	      0.00000000
     47.01021429	     -2.22674382	     -2.29944446	      1.21037085	      0.95453516	      0.93726175	      0.40988676	     35.59465697	     -4.95030350	     -5.22232336	     56.84979035	     56.84979035	      0.17694118	    -17.69549364	      4.10399430	      4.75995406	     -0.53769790	     -8.61122255	     13.73006850	     13.73006850	     13.65408406	     -9.48923144	     -0.08473268	     -9.49805165	      6.04751921	      2.24814169	    -12.73978257	    -11.35133352	    -13.74872601	     19.02897126	     47.16764242	      0.00000000	      0.00000000	     24.61049130	    -13.83144090	     -6.83448697	     63.48475770	     47.22342400	      0.00000000	      0.00000000
     47.02214286	     -2.32106845	     -2.40210940	      1.08658515	      0.95392470	      0.93688465	      0.41037658	     35.55751587	     -4.65536005	     -5.62049142	     53.24570148	     53.24570148	      0.56993375	    -17.24772715	      3.97467030	      4.19413930	     -0.66590357	     -8.75892165	     13.36466563	     13.36466563	     13.90319258	     -9.24701476	     -0.24941969	     -9.64317848	      6.18530013	      2.28363094	    -13.80315507	    -11.34932474	    -13.75177626	     19.08906143	     47.15561893	      0.00000000	      0.00000000	     25.25317785	    -14.05957942	     -7.05176851	     64.84029893	     47.26700206	      0.00000000	      0.00000000
     47.03407143	     -2.53782496	     -2.50932800	      0.95094122	      0.95343479	      0.93622900	      0.41093000	     35.44834401	     -4.34968413	     -6.04874668	     49.36597924	     49.36597924	      0.96378488	    -16.51126709	      3.92873211	      3.74568508	     -0.79390635	     -8.89714761	     12.98829961	     12.98829961	     14.17567959	     -9.01269176	     -0.42312296	     -9.56687106	      6.33565796	      2.30229433	    -14.76320673	    -11.31517035	    -13.78942403	     19.10864907	     47.14813450	      0.00000000	      0.00000000	     25.83222879	    -14.28623640	     -7.22420956	     66.04648350	     47.30422834	      0.00000000	      0.00000000
     47.04600000	     -2.60613931	     -2.52541030	      0.73823183	      0.95317746	      0.93558498	      0.41174893	     34.89887269	     -4.06475180	     -6.44141195	     45.09419102	     45.09419102	      0.51936116	    -15.90522907	      1.42095184	      3.13140791	     -0.90223645	     -9.53300501	     12.66851101	     12.66851101	     14.43351444	     -8.22220432	     -1.14094930	     -9.83452480	      6.30954903	      2.06989201	    -16.02052482	    -11.34705705	    -13.92857413	     21.04989432	     47.05717928	      0.00000000	      0.00000000	     25.29225893	    -14.88850011	     -7.78543274	     69.96966148	     47.41574642	      0.00000000	      0.00000000
     47.05792857	     -2.80385271	     -2.58353351	      0.57314099	      0.95309265	      0.93474555	      0.41255823	     34.34255190	     -3.72932013	     -6.89256115	     40.82913035	     40.82913035	      0.90153807	    -14.68796278	      1.57364006	      2.61515586	     -0.97618963	     -9.68776079	     12.26374146	     12.26374146	     14.69680297	     -8.05508266	     -1.27468652	     -9.73428600	      6.38055703	      2.22664446	    -16.76238028	    -11.36542229	    -13.91086557	     20.89852494	     47.05449207	      0.00000000	      0.00000000	     25.77581156	    -14.94896547	     -7.89898855	     70.79235906	     47.44311035	      0.00000000	      0.00000000
     47.06985714	     -2.85629928	     -2.56079083	      0.36483246	      0.95332864	      0.93393386	      0.41346969	     33.44926551	     -3.45934642	     -7.38933684	     36.56116335	     36.56116335	      1.25405719	    -13.10188834	      1.55943262	      1.87979304	     -0.98157329	    -10.03840969	     11.80742921	     11.80742921	     14.99048974	     -7.62050165	     -1.54905356	     -9.83634106	      6.35321302	      2.46570572	    -17.45154056	    -11.34583985	    -13.94127774	     21.03507785	     47.04291993	      0.00000000	      0.00000000	     26.05543934	    -15.04014480	     -8.03040374	     72.28399721	     47.48388497	      0.00000000	      0.00000000
     47.08178571	     -3.09131537	     -2.56052522	      0.18948593	      0.95374141	      0.93270040	      0.41453573	     32.63265013	     -3.11546531	     -7.87127377	     32.43049120	     32.43049120	      1.50639048	    -11.62002676	      1.97873192	      1.39967327	     -1.01477028	    -10.24892621	     11.47321672	     11.47321672	     15.30609505	     -7.39305883	     -1.77655469	     -9.61297669	      6.34139467	      2.56637895	    -17.88686862	    -11.30215330	    -13.98281682	     21.12482131	     47.03722977	      0.00000000	      0.00000000	     26.23861094	    -15.20476799	     -8.10544944	     73.24217047	     47.50949390	      0.00000000	      0.00000000
     47.09371429	     -3.04197990	     -2.45744032	      0.01284161	      0.95466258	      0.93162190	      0.41558849	     31.47105843	     -2.97234258	     -8.65340968	     28.75227050	     28.75227050	      1.93599560	     -9.47152026	      2.43355842	      0.49978906	     -0.95917938	    -10.79544220	     11.01123011	     11.01123011	     15.68096479	     -6.56472517	     -2.22386552	     -9.75630948	      6.20273976	      2.54319819	    -18.32242625	    -11.34652136	    -14.14202770	     21.71666650	     47.01828366	      0.00000000	      0.00000000	     25.83992057	    -15.52207149	     -8.28367129	     75.56551901	     47.56973783	      0.00000000	      0.00000000
     47.10564286	     -3.10807983	     -2.41149261	     -0.11977535	      0.95580087	      0.93023926	      0.41679404	     30.45454043	     -2.71984199	     -9.35897337	     25.59414198	     25.59414198	      2.41621573	     -7.72883787	      3.59840899	     -0.16590024	     -0.97909102	    -11.14039477	     10.77387976	     10.77387976	     16.11554017	     -6.08125206	     -2.48750173	     -9.65092774	      6.13181335	      2.32953868	    -18.48881353	    -11.44554322	    -14.22954111	     22.12265985	     47.00308686	      0.00000000	      0.00000000	     25.34937276	    -15.87008529	     -8.56764215	     77.28120608	     47.63212177	      0.00000000	      0.00000000
     47.11757143	     -3.12521139	     -2.34290244	     -0.24401827	      0.95719573	      0.92880356	      0.41807924	     29.45320237	     -2.51332266	    -10.12749652	     23.07576703	     23.07576703	      2.83350204	     -6.17382663	      4.63753453	     -0.92065619	     -0.95699217	    -11.36035802	     10.50460945	     10.50460945	     16.58848057	     -5.71933317	     -2.57898045	     -9.54136709	      6.03592688	      2.35084258	    -18.50075148	    -11.49605733	    -14.22751408	     22.20704678	     46.99689711	      0.00000000	      0.00000000	     25.12977899	    -16.01493122	     -8.67225994	     78.24407650	     47.66485552	      0.00000000	      0.00000000
     47.12950000	     -3.22835472	     -2.30594848	     -0.34023243	      0.95871078	      0.92715092	      0.41951307	     28.63746804	     -2.24812885	    -10.72173478	     21.18472289	     21.18472289	      2.99081244	     -5.29237718	      5.15938029	     -1.49528562	     -0.98506330	    -11.44544987	     10.39563157	     10.39563157	     17.02730506	     -5.65617069	     -2.66804870	     -9.27441958	      5.98174373	      2.43646146	    -18.41948417	    -11.51407936	    -14.22932190	     22.24330965	     46.99562879	      0.00000000	      0.00000000	     24.98609429	    -16.05107924	     -8.65883303	     78.63537120	     47.67418196	      0.00000000	      0.00000000
     47.14142857	     -3.27359387	     -2.18002115	     -0.43464756	      0.96046121	      0.92546547	      0.42101177	     27.94340371	     -2.12791779	    -11.25132811	     20.09674789	     20.09674789	      3.20879908	     -4.68132243	      5.38604670	     -2.10958931	     -0.93135753	    -11.51710284	     10.36943474	     10.36943474	     17.48716485	     -5.57706871	     -2.75362431	     -9.01671376	      5.78894190	      2.51142193	    -18.23839458	    -11.55121458	    -14.23251334	     22.30771353	     46.99459869	      0.00000000	      0.00000000	     24.73676811	    -16.02190992	     -8.60866447	     78.92095001	     47.67709344	      0.00000000	      0.00000000
     47.15335714	     -3.19783301	     -2.33434125	     -0.48280988	      0.96246817	      0.92410589	      0.42267165	     27.10346602	     -1.80673193	    -12.13071033	     19.43122890	     19.43122890	      3.41626664	     -3.92379549	      5.39093681	     -2.87767179	     -1.21010171	    -11.63456403	     10.33524725	     10.33524725	     17.99606852	     -5.39760952	     -2.66576357	     -8.91484168	      5.97247183	      2.53914447	    -17.85565042	    -11.65502240	    -14.23337369	     22.40546490	     46.99415032	      0.00000000	      0.00000000	     24.26443586	    -16.02420675	     -8.52987355	     79.32632313	     47.68032111	      0.00000000	      0.00000000
     47.16528571	     -3.31060081	     -2.30150821	     -0.54938392	      0.96444008	      0.92241095	      0.42446626	     26.72486400	     -1.65898325	    -12.46813915	     19.48893726	     19.48893726	      3.70276807	     -3.93137177	      5.22804992	     -3.36532297	     -1.29461641	    -11.60923496	     10.43216965	     10.43216965	     18.43496228	     -5.41969313	     -2.72472961	     -8.56231574	      5.90540167	      2.69263669	    -17.48148739	    -11.67249831	    -14.22202561	     22.52111238	     46.99167888	      0.00000000	      0.00000000	     23.96579905	    -15.95462361	     -8.48327811	     79.37678801	     47.67740302	      0.00000000	      0.00000000
